<svg class="svg-icon"
  style="width: 1em;height: 1em;vertical-align: middle;fill: currentColor;overflow: hidden;"
  viewBox="0 0 1024 1024" version="1.1" xmlns="http://www.w3.org/2000/svg">
  <path
    d="M832.256 133.162667l60.330667 60.373333a128 128 0 0 1 0 180.992l-108.16 108.202667 119.765333 119.765333a128 128 0 0 1 0 181.034667l-120.661333 120.661333a128 128 0 0 1-181.034667 0l-119.765333-119.765333-93.866667 93.866666a42.666667 42.666667 0 0 1-21.802667 11.648L140.757333 935.253333a42.666667 42.666667 0 0 1-50.176-50.218666l45.226667-226.261334a42.666667 42.666667 0 0 1 11.690667-21.76L651.221333 133.12a128 128 0 0 1 181.034667 0z m-93.098667 394.794666l-211.2 211.2 36.821334 36.821334 45.269333-45.226667a32 32 0 0 1 48.341333 41.642667l-3.072 3.584-45.226666 45.226666 37.674666 37.76a64 64 0 0 0 85.632 4.394667l4.864-4.394667 120.704-120.704a64 64 0 0 0 4.394667-85.632l-4.394667-4.864-119.808-119.808z m-155.818666-236.373333l-386.048 386.048-37.674667 188.586667 188.544-37.76 386.048-386.048-150.869333-150.826667zM415.36 114.048l6.144 5.76 121.557333 121.557333-45.226666 45.226667-121.6-121.557333a64 64 0 0 0-85.632-4.394667l-4.864 4.394667-120.704 120.704a64 64 0 0 0-4.394667 85.632l4.394667 4.864 37.717333 37.717333L278.186667 338.517333a32 32 0 0 1 48.341333 41.685334l-3.072 3.584-75.434667 75.434666 38.613334 38.570667-45.269334 45.226667-121.6-121.514667a128 128 0 0 1-5.717333-174.890667l5.76-6.144 120.661333-120.661333a128 128 0 0 1 174.890667-5.76z m281.173333 64.384l-67.925333 67.882667 150.869333 150.869333 67.84-67.882667a64 64 0 0 0 0-90.538666l-60.330666-60.330667a64 64 0 0 0-90.453334 0z"
    fill="" />
</svg>
