<svg class="svg-icon" style="width: 1em;height: 1em;vertical-align: middle;fill: currentColor;overflow: hidden;" viewBox="0 0 1024 1024" version="1.1" xmlns="http://www.w3.org/2000/svg"><path d="M810.666667 365.696h37.333333c31.872 0.768 58.325333 11.434667 79.36 32 20.992 20.608 31.872 46.506667 32.64 77.738667v438.869333c-0.768 31.232-11.648 57.130667-32.682667 77.696-20.992 20.565333-47.445333 31.232-79.317333 32H176c-31.872-0.768-58.325333-11.434667-79.36-32-20.992-20.565333-31.872-46.506667-32.64-77.696V475.434667c0.768-31.232 11.648-57.173333 32.682667-77.738667 20.992-20.565333 47.445333-31.232 79.317333-32H213.333333V292.565333c2.346667-83.029333 31.488-151.978667 87.466667-206.848C356.864 30.848 427.264 2.304 512 0c84.778667 2.304 155.178667 30.848 211.2 85.717333 55.978667 54.869333 85.12 123.818667 87.466667 206.848v73.130667zM176 438.869333a36.736 36.736 0 0 0-26.837333 10.24 35.2 35.2 0 0 0-10.496 26.325334v438.869333c0 10.666667 3.498667 19.413333 10.496 26.282667 6.997333 6.826667 15.957333 10.24 26.837333 10.24h672c10.88 0 19.84-3.413333 26.837333-10.24a35.2 35.2 0 0 0 10.496-26.282667V475.434667a35.2 35.2 0 0 0-10.496-26.282667 36.736 36.736 0 0 0-26.837333-10.282667H176zM736 365.653333V292.565333c-1.536-62.464-23.338667-114.261333-65.322667-155.434666-42.026667-41.130667-94.890667-62.464-158.677333-64-63.786667 1.536-116.650667 22.869333-158.677333 64-41.984 41.173333-63.786667 92.970667-65.322667 155.434666v73.130667h448z m-224 182.869334c10.88 0 19.84 3.413333 26.837333 10.282666 6.997333 6.826667 10.496 15.616 10.496 26.282667v219.434667c0 10.666667-3.498667 19.456-10.496 26.282666a36.736 36.736 0 0 1-26.837333 10.282667 36.736 36.736 0 0 1-26.837333-10.24 35.2 35.2 0 0 1-10.496-26.325333v-219.434667c0-10.666667 3.498667-19.413333 10.496-26.282667a36.736 36.736 0 0 1 26.837333-10.24z" fill="#000000" /></svg>