<svg class="svg-icon"
  style="width: 1em; height: 1em;vertical-align: middle;fill: currentColor;overflow: hidden;"
  viewBox="0 0 1024 1024" version="1.1" xmlns="http://www.w3.org/2000/svg">
  <path
    d="M928 288h-139.024l41.808-181.2a48 48 0 0 0-93.552-21.584L690.432 288H436.96l41.824-181.2a48 48 0 0 0-93.552-21.584L338.432 288H192a48 48 0 1 0 0 96h124.272l-59.072 256H96a48 48 0 1 0 0 96h139.04l-41.808 181.2a48 48 0 0 0 93.536 21.584L333.568 736h253.456l-41.808 181.2a48 48 0 0 0 93.552 21.584L685.568 736H832a48 48 0 1 0 0-96h-124.288l59.072-256H928a48 48 0 1 0 0-96zM609.2 640H355.728l59.072-256h253.488l-59.088 256z"
    fill="" />
</svg>
